Coordinates
version=1
nRows=13
nColumns=40
inDegrees=yes

Units are S.I. units (second, meters, Newtons, ...)
If the header above contains a line with 'inDegrees', this indicates whether rotational values are in degrees (yes) or radians (no).

endheader
time	pelvis_tilt	pelvis_list	pelvis_rotation	pelvis_tx	pelvis_ty	pelvis_tz	hip_flexion_r	hip_adduction_r	hip_rotation_r	knee_angle_r	knee_angle_r_beta	ankle_angle_r	subtalar_angle_r	mtp_angle_r	hip_flexion_l	hip_adduction_l	hip_rotation_l	knee_angle_l	knee_angle_l_beta	ankle_angle_l	subtalar_angle_l	mtp_angle_l	lumbar_extension	lumbar_bending	lumbar_rotation	arm_flex_r	arm_add_r	arm_rot_r	elbow_flex_r	pro_sup_r	wrist_flex_r	wrist_dev_r	arm_flex_l	arm_add_l	arm_rot_l	elbow_flex_l	pro_sup_l	wrist_flex_l	wrist_dev_l
      0.00000000	      5.34341620	     -3.00578079	     -2.11712057	      0.05316976	      1.31795838	     -0.00339740	     62.23066637	      1.55544942	     -0.41909415	    104.59171940	      1.82546987	    -16.35891905	    -22.99487082	      0.00000000	     22.56027108	    -10.80560321	    -13.10723693	     33.04796309	      0.57679577	    -16.48751183	     -6.97334169	      0.00000000	    -59.80794737	      1.62942781	      4.78880686	     52.29182854	     16.06963815	    -64.24817507	     48.12788778	     81.95124736	      0.00000000	      0.00000000	     58.63722853	     17.59843711	    -63.57865270	     44.74506567	     57.91011337	      0.00000000	      0.00000000
      0.01700000	      5.46364293	     -3.53608773	     -1.90545484	      0.05293841	      1.31798216	     -0.00348194	     63.84851018	      1.81103998	     -0.93416269	    103.75090886	      1.81079496	    -16.84010579	    -22.84476604	      0.00000000	     21.33140820	    -11.04727387	    -11.00850398	     33.64901032	      0.58728602	    -16.26074180	     -8.69344783	      0.00000000	    -59.92261834	      1.92490888	      5.23428610	     52.11153903	     16.05570127	    -64.14966567	     48.13671971	     81.80432264	      0.00000000	      0.00000000	     58.63103743	     17.52299644	    -63.41003067	     44.59758255	     58.02138204	      0.00000000	      0.00000000
      0.03300000	      5.48717538	     -4.01401643	     -1.56337935	      0.05266680	      1.31781184	     -0.00378471	     65.55415255	      1.88470003	     -1.44650847	    102.84695823	      1.79501805	    -17.48641774	    -22.82103940	      0.00000000	     20.23432946	    -11.12945158	     -8.68608989	     34.18528135	      0.59664572	    -16.37282557	    -10.62695987	      0.00000000	    -59.93113981	      2.30408331	      5.58109937	     51.92795512	     16.01852273	    -64.06309889	     48.11532903	     81.67496112	      0.00000000	      0.00000000	     58.59363736	     17.48515478	    -63.22683460	     44.49833841	     58.11266556	      0.00000000	      0.00000000
      0.05000000	      5.54376818	     -4.21249930	     -1.21377708	      0.05255656	      1.31772714	     -0.00409913	     66.88083748	      1.81347439	     -1.75631647	    101.52233732	      1.77189905	    -17.83609326	    -22.75575446	      0.00000000	     19.54520396	    -11.09283435	     -6.87611094	     35.60580078	      0.62143846	    -16.22347100	    -12.11930409	      0.00000000	    -59.97597230	      2.52366199	      5.67151375	     51.77650925	     15.95962470	    -63.98350450	     48.08599934	     81.55420220	      0.00000000	      0.00000000	     58.59093872	     17.47333175	    -63.08066081	     44.44301572	     58.17958993	      0.00000000	      0.00000000
      0.06700000	      5.68824732	     -3.96608602	     -0.93432127	      0.05263059	      1.31788391	     -0.00425565	     67.76681510	      1.63686513	     -1.72496812	     99.71217597	      1.74030578	    -17.67296887	    -22.67438077	      0.00000000	     19.33354535	    -10.92636524	     -6.13156595	     38.22850758	      0.66721333	    -15.81464786	    -12.74078690	      0.00000000	    -60.14445347	      2.40759710	      5.41765757	     51.71680561	     15.88355863	    -63.92632145	     48.01545870	     81.41208608	      0.00000000	      0.00000000	     58.68492380	     17.48969514	    -62.87996905	     44.42638619	     58.22131999	      0.00000000	      0.00000000
      0.08300000	      5.72854203	     -3.55009022	     -0.60323940	      0.05276729	      1.31798770	     -0.00441108	     68.39872551	      1.38886186	     -1.59620260	     97.45519589	      1.70091404	    -17.26490742	    -22.59442016	      0.00000000	     19.71576494	    -10.69372819	     -5.64150706	     41.67889243	      0.72743390	    -15.44301233	    -13.04364863	      0.00000000	    -60.22989887	      2.23939803	      4.99171532	     51.69207551	     15.75940462	    -63.88999747	     47.93473948	     81.31499963	      0.00000000	      0.00000000	     58.78768439	     17.54907191	    -62.70351590	     44.46440810	     58.28361624	      0.00000000	      0.00000000
      0.10000000	      5.96145890	     -2.98332143	     -0.31733858	      0.05291653	      1.31847677	     -0.00435009	     68.17780145	      1.08035925	     -1.39403576	     94.71225393	      1.65304067	    -16.68118544	    -22.53632177	      0.00000000	     20.16733182	    -10.40234339	     -5.37069690	     45.56274156	      0.79521986	    -14.93527068	    -13.32871547	      0.00000000	    -60.49355876	      1.90737790	      4.43122298	     51.63986259	     15.65183740	    -63.82976391	     47.85842368	     81.21346301	      0.00000000	      0.00000000	     58.94131644	     17.60742009	    -62.53519015	     44.51581726	     58.33890945	      0.00000000	      0.00000000
      0.11700000	      6.39101274	     -2.09534732	     -0.22312279	      0.05303559	      1.31942307	     -0.00391572	     67.02507717	      0.77922772	     -0.88451808	     91.40796256	      1.59536991	    -15.93320372	    -22.61675670	      0.00000000	     20.64756359	     -9.84536321	     -5.12550752	     49.75118076	      0.86832191	    -14.93856453	    -13.30897223	      0.00000000	    -60.93545256	      1.20131802	      3.69232679	     51.49952895	     15.58999944	    -63.73429697	     47.86389631	     81.07779643	      0.00000000	      0.00000000	     59.12905907	     17.66286705	    -62.33718364	     44.57548033	     58.35646548	      0.00000000	      0.00000000
      0.13300000	      6.36717410	     -1.67025943	      0.67580835	      0.05294569	      1.31952569	     -0.00450710	     65.62482446	     -0.15632579	     -1.18406237	     87.57020106	      1.52838834	    -14.35868462	    -22.06221034	      0.00000000	     22.41490102	     -9.33749426	     -3.74197284	     54.92294049	      0.95858615	    -14.46166091	    -14.44683439	      0.00000000	    -60.87113324	      1.47227608	      2.87041558	     51.39810531	     15.44070229	    -63.63895825	     47.70854518	     81.04331287	      0.00000000	      0.00000000	     59.22851755	     17.85524792	    -62.47207150	     44.82865734	     58.61980831	      0.00000000	      0.00000000
      0.15000000	      6.81227393	     -0.54745471	      0.69549565	      0.05307456	      1.32039545	     -0.00381064	     63.43353486	     -0.61477343	     -0.56023935	     83.54813384	      1.45819002	    -13.69142484	    -22.06543118	      0.00000000	     23.39263720	     -8.55929168	     -3.62732799	     59.74079593	      1.04267359	    -14.27552176	    -14.46859562	      0.00000000	    -61.27281664	      0.54930930	      1.91453578	     51.15546687	     15.38375654	    -63.53696801	     47.72043240	     80.77961713	      0.00000000	      0.00000000	     59.35299462	     17.90694639	    -62.26875757	     44.88259801	     58.61835551	      0.00000000	      0.00000000
      0.16700000	      7.13527447	      0.00049702	      1.33714213	      0.05292082	      1.32111474	     -0.00398719	     60.73274923	     -1.56337745	     -0.90808041	     78.99792425	      1.37877388	    -13.24806124	    -21.60336324	      0.00000000	     24.97100846	     -7.97054086	     -2.72859184	     64.97057556	      1.13395046	    -13.24748389	    -15.55390987	      0.00000000	    -61.51506738	      0.52331225	      1.10091511	     51.06987135	     15.23299494	    -63.53656321	     47.46660215	     80.34821314	      0.00000000	      0.00000000	     59.44059671	     18.15197889	    -62.38131139	     45.13413239	     58.60528773	      0.00000000	      0.00000000
      0.18300000	      7.46551183	      0.99270991	      1.95191867	      0.05266645	      1.32186687	     -0.00402609	     57.65429749	     -2.73859717	     -0.92747629	     74.13778361	      1.29394842	    -13.51597488	    -21.24221968	      0.00000000	     26.70490908	     -6.88901166	     -1.95661066	     70.14335746	      1.22423254	    -12.73949233	    -16.07501055	      0.00000000	    -61.76012797	      0.20184453	     -0.06954466	     50.87203345	     15.13633174	    -63.52915845	     47.33337161	     80.00134003	      0.00000000	      0.00000000	     59.54120247	     18.33859632	    -62.37736132	     45.29338253	     58.65606451	      0.00000000	      0.00000000
      0.20000000	      7.65681828	      2.21581052	      2.29424559	      0.05252440	      1.32239963	     -0.00362234	     54.44059968	     -3.70128512	     -0.55173220	     69.21548500	      1.20803811	    -13.70669780	    -21.15460583	      0.00000000	     28.56199881	     -5.73582032	     -1.64411824	     75.00413433	      1.30906910	    -12.28545618	    -16.32290721	      0.00000000	    -61.90696507	     -0.53283974	     -1.28329459	     50.58674619	     15.06304452	    -63.63037051	     47.33843012	     80.06939732	      0.00000000	      0.00000000	     59.64481741	     18.48724530	    -62.28087535	     45.34043246	     58.77313648	      0.00000000	      0.00000000
